<?xml version="1.0" encoding="utf-8"?>
<!-- Generator: Adobe Illustrator 21.1.0, SVG Export Plug-In . SVG Version: 6.00 Build 0)  -->
<svg version="1.1" id="Layer_1" xmlns="http://www.w3.org/2000/svg" xmlns:xlink="http://www.w3.org/1999/xlink" x="0px" y="0px"
	 width="110.7px" height="97.5px" viewBox="0 0 110.7 97.5" style="enable-background:new 0 0 110.7 97.5;" xml:space="preserve">
<style type="text/css">
	.st0{fill:#AF1F24;}
	.st1{clip-path:url(#SVGID_2_);fill:#E8E8E8;}
	.st2{display:none;}
	.st3{display:inline;}
	.st4{display:inline;clip-path:url(#SVGID_4_);fill:#7A7A7A;}
	.st5{fill:#EC2028;}
	.st6{clip-path:url(#SVGID_6_);fill:#FFFFFF;}
	.st7{fill:#FFFFFF;}
	.st8{fill:#D92027;}
</style>
<g>
	<path id="a" class="st0" d="M3.3,74.8c10,24.8,42.2,29.2,70.6,13.8c28.4-15.4,43.4-45,34.1-66.4c-1.2-2.8-3.2-6.8-5.8-9.3
		C88.9-0.5,63-1.4,39.2,11.5C10.7,26.9-5.5,53.1,3.3,74.8"/>
</g>
<g>
	<defs>
		<path id="SVGID_1_" d="M3.3,74.8c10,24.8,42.2,29.2,70.6,13.8c28.4-15.4,43.4-45,34.1-66.4c-1.2-2.8-3.2-6.8-5.8-9.3
			C88.9-0.5,63-1.4,39.2,11.5C10.7,26.9-5.5,53.1,3.3,74.8"/>
	</defs>
	<clipPath id="SVGID_2_">
		<use xlink:href="#SVGID_1_"  style="overflow:visible;"/>
	</clipPath>
	<path class="st1" d="M103.7,48.1l2.9,6.2c2.4-4.8,4.3-13.6,4.1-18.3l-2.9-6c-0.1,1-1,7.4-1.3,8.4C105.8,41.3,104.7,45.5,103.7,48.1
		L103.7,48.1z M81.5,74.6l3.2,7.1c4.7-3.3,10.2-8.5,13.5-13.3l-3-6.7C92.9,65.1,84.9,72.2,81.5,74.6L81.5,74.6z M51.7,96.5l-2-6.4
		c7.5-1.9,11.8-3.7,18.7-6.8l1.8,7.2C65.8,92.8,55.8,96,51.7,96.5L51.7,96.5z M17.9,92l-4-5.9c5.6,2.4,12.1,4.8,18.8,5.4l1.4,5.7
		C24.9,96,22.4,94.2,17.9,92L17.9,92z"/>
</g>
<g class="st2">
	<defs>
		<path id="SVGID_3_" d="M2.7,73.6c9,20.1,39.3,24,67.6,8.7c28.3-15.3,43.9-44.1,34.9-64.2C96.2-2.1,65.9-6,37.6,9.4
			C9.3,24.7-6.3,53.4,2.7,73.6"/>
	</defs>
	<clipPath id="SVGID_4_" class="st3">
		<use xlink:href="#SVGID_3_"  style="overflow:visible;"/>
	</clipPath>
	<path class="st4" d="M21.3,36.1l-9-5.9c-3.2,3.9-5.7,8-7.8,12.6l11.1,2.4C17.1,41.9,19.2,39.2,21.3,36.1 M41.1,19.5L36.3,10
		c-4.9,2.3-8,4.4-11.8,8.1l7.2,7.8C34.4,23.4,37.8,21.5,41.1,19.5 M67.5,11.9L69.6,0c-6.3,0.1-11.8,1.3-18.2,3.4l2.5,10.8
		C58.5,12.7,63.1,12,67.5,11.9 M91.1,21.3l11.6-7.9c-3.3-4.6-8.6-8.6-14.1-10.6l-6.9,10.5C85.3,15.7,88.7,18,91.1,21.3 M90.4,44.3
		l14.3,4.1c2.7-4.7,3.6-13.2,4.4-18.7l-15.6,2.7c-0.1,1,0.2,1.4-0.1,2.4C92.8,37.7,91.8,41.8,90.4,44.3 M74.1,63.8l8.5,12.5
		c4.5-3.8,10.3-9.3,13.6-14l-12.5-7.6C81.3,58,77.3,60.9,74.1,63.8z M50,75.7l-0.4,15c7.5-1.9,12.4-2.8,19.2-6.4l-6.2-13.5
		c-3.5,1.9-6.1,3-10.2,4.3C51.1,75.4,51.3,75.3,50,75.7z M23.7,75l-10,11.2c5.3,2.8,11.9,5.1,18.9,5.5l4.1-14
		C31.9,77.2,27.7,76.7,23.7,75L23.7,75z M12.7,56.9L0.4,56.7c-0.9,5.9,0,12.1,2.5,17.4l12.6-5.9C13.9,64.7,12.6,60.9,12.7,56.9
		L12.7,56.9z"/>
</g>
<g>
	<g>
		<path id="e" class="st5" d="M2.7,73.6c9,20.1,39.3,24,67.6,8.7c28.3-15.3,43.9-44.1,34.9-64.2C96.2-2.1,65.9-6,37.6,9.4
			C9.3,24.7-6.3,53.4,2.7,73.6"/>
	</g>
	<g>
		<defs>
			<path id="SVGID_5_" d="M2.7,73.6c9,20.1,39.3,24,67.6,8.7c28.3-15.3,43.9-44.1,34.9-64.2C96.2-2.1,65.9-6,37.6,9.4
				C9.3,24.7-6.3,53.4,2.7,73.6"/>
		</defs>
		<clipPath id="SVGID_6_">
			<use xlink:href="#SVGID_5_"  style="overflow:visible;"/>
		</clipPath>
		<path class="st6" d="M21.3,36.1l-9-5.9c-3.2,3.9-5.7,8-7.8,12.6l11.1,2.4C17.1,41.9,19.2,39.2,21.3,36.1 M41.1,19.5L36.3,10
			c-4.9,2.3-8,4.4-11.8,8.1l7.2,7.8C34.4,23.4,37.8,21.5,41.1,19.5 M67.5,11.9L69.6,0c-6.3,0.1-11.8,1.3-18.2,3.4l2.5,10.8
			C58.5,12.7,63.1,12,67.5,11.9 M91.1,21.3l11.6-7.9c-3.3-4.6-8.6-8.6-14.1-10.6l-6.9,10.5C85.3,15.7,88.7,18,91.1,21.3 M90.4,44.3
			l14.3,4.1c2.7-4.7,3.6-13.2,4.4-18.7l-15.6,2.7c-0.1,1,0.2,1.4-0.1,2.4C92.8,37.7,91.8,41.8,90.4,44.3 M74.1,63.8l8.5,12.5
			c4.5-3.8,10.3-9.3,13.6-14l-12.5-7.6C81.3,58,77.3,60.9,74.1,63.8z M50,75.7l-0.4,15c7.5-1.9,12.4-2.8,19.2-6.4l-6.2-13.5
			c-3.5,1.9-6.1,3-10.2,4.3C51.1,75.4,51.3,75.3,50,75.7z M23.7,75l-10,11.2c5.3,2.8,11.9,5.1,18.9,5.5l4.1-14
			C31.9,77.2,27.7,76.7,23.7,75L23.7,75z M12.7,56.9L0.4,56.7c-0.9,5.9,0,12.1,2.5,17.4l12.6-5.9C13.9,64.7,12.6,60.9,12.7,56.9
			L12.7,56.9z"/>
	</g>
</g>
<path class="st7" d="M14.1,66C20.5,80,43,81.7,64.5,70C86,58.3,98.4,37.5,92.1,23.5c-6.3-13.9-28.9-15.7-50.4-4
	C20.2,31.3,7.8,52.1,14.1,66"/>
<path class="st0" d="M13.7,66.2c-1.1-2.5-1.7-5.3-1.7-8.2c0-13.3,11.6-29.2,29.4-38.9c9.6-5.2,19.5-7.8,28-7.8c10.7,0,19.4,4,23,12
	c1.2,2.5,1.7,5.3,1.7,8.1c0,13.3-11.6,29.2-29.4,38.9c-9.6,5.3-19.5,7.8-28,7.8C26.1,78.2,17.3,74.2,13.7,66.2 M36.7,77.3
	c8.4,0,18.1-2.5,27.6-7.7c17.6-9.6,29-25.3,28.9-38.1c0-2.8-0.5-5.4-1.6-7.8c-3.4-7.5-11.7-11.5-22.2-11.5c-8.4,0-18.1,2.5-27.6,7.7
	c-17.6,9.6-29,25.3-29,38.1c0,2.8,0.5,5.4,1.6,7.8L14.1,66l0.4-0.2C18,73.4,26.3,77.3,36.7,77.3"/>
<path class="st5" d="M26.5,20.3c-4.3,4.3-7.7,8.7-10.3,12.5l2.4,1.6c3.2-3,7.3-6.5,11.9-9.7L26.5,20.3 M101.8,14l-8.2,5.6
	c2.3,3,3.9,6.9,4.6,12l2.9-0.5C104.2,24.3,104.1,18.6,101.8,14 M51.5,3.9c-5.4,2-10.2,4.6-14.5,7.5l3.6,7c4-2.1,8.3-3.8,12.8-4.9
	c0.1,0,0.2,0,0.3-0.1L51.5,3.9 M71.1,0.4c-0.5,0-1.1,0-1.6,0L67.6,11c1.5-0.1,3-0.2,4.5-0.2c3.6,0,7.1,0.4,10.3,1.3l5.8-8.9
	C83.2,1.4,77.2,0.4,71.1,0.4"/>
<path class="st7" d="M16.2,32.7c-4.2,6.1-6.2,10.7-6.2,10.7s3.2-4,8.7-9.1L16.2,32.7 M37,11.4c-4,2.7-7.5,5.8-10.6,8.8l4,4.3
	c3.1-2.2,6.5-4.3,10.1-6.1L37,11.4 M69.5,0.4c-4.8,0.1-9.6,0.9-14.1,2.2c-1.3,0.4-2.6,0.8-3.8,1.3l2.2,9.6c4.4-1.1,9.2-2,13.9-2.4
	L69.5,0.4 M88.3,3.3l-5.8,8.9c4.4,1.3,8.3,3.6,11.1,7.4l8.2-5.6C99.4,9.1,94.5,5.5,88.3,3.3 M101.1,31.1l-2.9,0.5
	c0.2,1.3,0.3,2.7,0.4,4.1C99.6,34.3,100.4,32.7,101.1,31.1"/>
<path class="st8" d="M83,19.5l-23,9.4l-15.2-8.1l-4.6,18.5L19,53.1l20.2,2l2.1,16.6l17-17.3l22.6-3.5l-9.6-12.7L83,19.5"/>
<path class="st7" d="M44.3,22.7c-8,4.5-15.3,10.2-18.9,16.1C15.5,54.9,15.2,60,19.4,60c3,0,8.2-2.5,13.7-5.5L19,53.1l21.2-13.8
	L44.3,22.7 M71.1,14c-6.5,0-16,3-24.8,7.6L60,28.9l23-9.4L71.2,38.2l0.2,0.3c1.6-0.4,2.9-0.6,4.1-0.6c4.5,0,5.8,3.3,4.4,11.7
	l0.9,1.2l-1.2,0.2c-0.2,1.2-0.5,2.4-0.7,3.6c-0.1,0.2,0,0.3,0.1,0.3c0.7,0,4.4-5.1,7.3-11.9c7.1-16.6-2.6-26.5-11.6-28.8
	C73.6,14.1,72.4,14,71.1,14"/>
<path class="st5" d="M79.9,49.7c-0.1,0.5-0.2,0.9-0.2,1.4l1.2-0.2L79.9,49.7 M83,19.5l-23,9.4l-13.7-7.3c-0.7,0.3-1.3,0.7-2,1.1
	l-4.1,16.6L19,53.1l14.2,1.4c5.4-2.9,11.1-6.1,15.4-7.7c10.2-3.9,17.7-7,22.9-8.2l-0.2-0.3L83,19.5"/>
</svg>
